<svg width="44" height="47" viewBox="0 0 44 47" fill="none" xmlns="http://www.w3.org/2000/svg">
<path d="M36.3963 30.7383C36.6535 30.3813 36.8621 29.9906 36.996 29.5714C37.6304 27.5844 37.972 25.4663 37.972 23.1606C37.972 22.911 37.9675 22.6627 37.9587 22.416C37.8699 19.9186 35.323 18.5187 32.824 18.5187C29.6251 18.5226 26.4723 17.635 23.6314 15.9305C20.112 13.8189 14.0447 14.4416 11.1742 17.3749C10.1425 18.4291 9.01613 19.3635 7.81032 20.1598C6.76704 20.8489 6.006 21.9103 6.006 23.1606C6.006 25.5956 6.4197 28.0068 7.22347 30.2564C8.02724 32.5061 9.20535 34.5501 10.6905 36.2719C13.69 39.7493 17.7581 41.7028 22 41.7028C22.9973 41.7028 23.9781 41.5935 24.9319 41.3851C26.971 40.9396 29.6145 42.1607 30.2938 44.1343C30.4403 44.5598 30.101 44.3129 29.6797 44.471C26.3782 45.7103 23.8 46.3193 22 46.3193C16.676 46.3193 11.594 43.8963 7.854 39.5349C5.83972 37.2107 4.28373 34.4147 3.28708 31.3399C3.05619 30.6276 2.40586 30.1235 1.65707 30.1235C0.741893 30.1235 0 29.3816 0 28.4664V19.8231C0 19.1027 0.584006 18.5187 1.30441 18.5187C1.93702 18.5187 2.47496 18.0638 2.61108 17.446C3.42376 13.7577 5.00885 10.3522 7.23182 7.53511C9.66875 4.4469 12.7814 2.18111 16.2394 0.978162C19.6974 -0.224785 23.3718 -0.320016 26.8727 0.702574C30.3736 1.72516 33.5705 3.82743 36.124 6.7863C38.6664 9.72394 40.4678 13.4023 41.3438 17.4235C41.4811 18.0537 42.0289 18.5187 42.6739 18.5187C43.4063 18.5187 44 19.1124 44 19.8448V30.0314C44 30.0823 43.9588 30.1235 43.9079 30.1235C43.8824 30.1235 43.8581 30.134 43.8407 30.1526L39.0048 35.3022C37.1409 37.2871 34.4357 38.2537 31.736 37.8993L26.3496 37.1924C25.2204 37.0442 24.376 36.0818 24.376 34.9429C24.376 33.6898 25.3918 32.674 26.6448 32.674H32.6165C34.1143 32.674 35.5208 31.9537 36.3963 30.7383ZM15.994 22.574C16.654 22.574 17.292 22.88 17.754 23.4412C18.2183 23.9838 18.4788 24.7172 18.4788 25.4816C18.4788 26.2459 18.2183 26.9793 17.754 27.522C17.292 28.0576 16.654 28.3636 15.994 28.3636C14.608 28.3636 13.486 27.0884 13.486 25.4816C13.486 23.8747 14.608 22.574 15.994 22.574ZM27.984 22.574C29.37 22.574 30.47 23.8747 30.47 25.4816C30.47 27.0884 29.37 28.3636 27.984 28.3636C26.598 28.3636 25.476 27.0884 25.476 25.4816C25.476 24.7104 25.7402 23.9709 26.2106 23.4256C26.6809 22.8803 27.3188 22.574 27.984 22.574Z" fill="#145514"/>
</svg>
