<svg width="44" height="40" viewBox="0 0 44 40" fill="none" xmlns="http://www.w3.org/2000/svg">
<path d="M37.4583 9.33337C35.742 6.76459 33.4175 4.65972 30.6916 3.20588C27.9656 1.75205 24.9227 0.994308 21.8333 1.00003C18.7492 0.997963 15.7123 1.75753 12.9924 3.21129C10.2724 4.66504 7.9535 6.76798 6.24164 9.33337" stroke="#145514" stroke-width="2" stroke-linecap="round" stroke-linejoin="round"/>
<path d="M20.7916 1C19.1682 3.60138 17.8894 6.40259 16.9875 9.33333M22.875 1C24.4999 3.60117 25.78 6.40238 26.6833 9.33333M37.4583 30.1667C35.742 32.7354 33.4175 34.8403 30.6916 36.2942C27.9656 37.748 24.9227 38.5057 21.8333 38.5C18.7492 38.5021 15.7123 37.7425 12.9924 36.2887C10.2724 34.835 7.9535 32.7321 6.24164 30.1667" stroke="#145514" stroke-width="2" stroke-linecap="round" stroke-linejoin="round"/>
<path d="M20.7917 38.4997C19.1682 35.8983 17.8895 33.0971 16.9875 30.1663M22.875 38.4997C24.4999 35.8985 25.7801 33.0973 26.6833 30.1663M1 15.583L3.08333 23.9163L6.20833 15.583L9.33333 23.9163L11.4167 15.583M32.25 15.583L34.3333 23.9163L37.4583 15.583L40.5833 23.9163L42.6667 15.583M16.625 15.583L18.7083 23.9163L21.8333 15.583L24.9583 23.9163L27.0417 15.583" stroke="#145514" stroke-width="2" stroke-linecap="round" stroke-linejoin="round"/>
</svg>
