<svg width="29" height="23" viewBox="0 0 29 23" fill="none" xmlns="http://www.w3.org/2000/svg">
<path d="M7.38049 17.9325C9.91654 19.9161 12.048 20.5512 14.5 20.5512C16.6329 20.5512 19.4169 19.6623 22.0951 17.7686C24.0265 16.4027 25.6229 14.4119 26.8801 11.7801C25.5171 9.41371 23.9395 7.47651 22.1487 5.96126C19.6692 3.86166 16.9548 2.89886 14.4463 2.89886C11.8508 2.89886 8.86384 4.05596 6.31474 6.48616C4.47904 8.23486 3.08849 9.99516 2.13874 11.7613C3.68299 14.3553 5.43169 16.41 7.38049 17.9325ZM14.5 22.6C11.6377 22.6 9.08424 21.8388 6.17554 19.5637C3.88889 17.7773 1.87774 15.3573 0.137741 12.3137C0.0527699 12.1648 0.00556722 11.9973 0.000259136 11.8259C-0.00504895 11.6546 0.0316991 11.4845 0.107291 11.3306C1.17159 9.16576 2.79124 7.05311 4.96044 4.98396C7.88509 2.19561 11.3578 0.850006 14.4463 0.850006C17.4087 0.850006 20.5697 1.97376 23.4131 4.37931C25.5142 6.15701 27.3325 8.44221 28.8695 11.2262C29.029 11.5133 29.0435 11.8628 28.9086 12.1615C27.476 15.3515 25.5809 17.7904 23.2232 19.4579C20.213 21.585 17.036 22.6 14.4985 22.6M14.8378 17.38C14.1333 17.38 13.4357 17.2412 12.7847 16.9716C12.1338 16.702 11.5424 16.3068 11.0442 15.8086C10.546 15.3104 10.1508 14.719 9.88123 14.0681C9.61161 13.4172 9.47284 12.7195 9.47284 12.015C9.47284 11.3105 9.61161 10.6128 9.88123 9.96191C10.1508 9.311 10.546 8.71956 11.0442 8.22138C11.5424 7.72319 12.1338 7.32801 12.7847 7.05839C13.4357 6.78878 14.1333 6.65001 14.8378 6.65001C16.2607 6.65001 17.6253 7.21525 18.6315 8.22138C19.6376 9.22751 20.2028 10.5921 20.2028 12.015C20.2028 13.4379 19.6376 14.8025 18.6315 15.8086C17.6253 16.8148 16.2607 17.38 14.8378 17.38ZM14.8378 15.35C15.2758 15.35 15.7095 15.2637 16.1141 15.0961C16.5187 14.9285 16.8864 14.6829 17.196 14.3732C17.5057 14.0635 17.7514 13.6959 17.919 13.2913C18.0866 12.8866 18.1728 12.453 18.1728 12.015C18.1728 11.577 18.0866 11.1434 17.919 10.7388C17.7514 10.3341 17.5057 9.96649 17.196 9.65681C16.8864 9.34712 16.5187 9.10147 16.1141 8.93387C15.7095 8.76627 15.2758 8.68001 14.8378 8.68001C13.9533 8.68001 13.1051 9.03137 12.4796 9.65681C11.8542 10.2822 11.5028 11.1305 11.5028 12.015C11.5028 12.8995 11.8542 13.7478 12.4796 14.3732C13.1051 14.9986 13.9533 15.35 14.8378 15.35Z" fill="#1F1F1F"/>
</svg>
